# xmcd CD database file
# Copyright (C) 1993-1996 Ti Kan
#
# Track frame offsets:
# 150
# 10435
# 21727
# 31852
# 41940
# 53600
# 63497
# 74840
# 85245
# 98437
# 112767
# 125077
# 135810
# 147175
# 158355
# 169387
# 180317
# 190362
# 203190
# 214320
# 227710
# 237265
# 247690
# 258122
# 271670
# 283937
# 296947
# 308542
# 322542
# 332985
# 343702
#
# Disc length: 4746 seconds
#
# Revision: 0
# Processed by: cddbd v1.4b41PL1 Copyright (c) Steve Scherf et al.
# Submitted via: inCDius 1.1b5
#
DISCID=be12881f
DTITLE=George Hamilton 4th - To You And Yours,From Me And Mine Disc 5
DYEAR=1900
DGENRE=
TTITLE0=Abelene
TTITLE1=Mine
TTITLE2=Oh, So Many Years
TTITLE3=Remember M, Remember E, Remember Me
TTITLE4=Theres More Pretty Girls Than One
TTITLE5=You're Easy To Love
TTITLE6=Fort  Worth, Dallas Or Houston
TTITLE7=Fair And Tender Ladies
TTITLE8=Kentucky
TTITLE9=Candy Apple Red
TTITLE10=Tag Along
TTITLE11=The Little Grave
TTITLE12=Texarcana, Pecos Or Houston
TTITLE13=Truck Driving Man
TTITLE14=A Rose And A Baby Ruth
TTITLE15=Roll Muddy River
TTITLE16=That's All Right
TTITLE17=Driftwood On The River
TTITLE18=Let's Say Goodbye Like We Said Hello
TTITLE19=Rainbow At Midnight
TTITLE20=It's Been So Long Darlin'
TTITLE21=Letters Have No Arms
TTITLE22=Walking The Floor Over You
TTITLE23=I Will Miss You When You Go
TTITLE24=Half A Mind
TTITLE25=You Nearly Lose Your Mind
TTITLE26=Fortunes In Memories
TTITLE27=Soldier's Last Letter
TTITLE28=Thanks A Lot
TTITLE29=A Nice Place To Visit But I Sure Hate To Live There)( 
TTITLE30=Twist Of The Wrist
EXTD=
EXTT0=
EXTT1=
EXTT2=
EXTT3=
EXTT4=
EXTT5=
EXTT6=
EXTT7=
EXTT8=
EXTT9=
EXTT10=
EXTT11=
EXTT12=
EXTT13=
EXTT14=
EXTT15=
EXTT16=
EXTT17=
EXTT18=
EXTT19=
EXTT20=
EXTT21=
EXTT22=
EXTT23=
EXTT24=
EXTT25=
EXTT26=
EXTT27=
EXTT28=
EXTT29=
EXTT30=
PLAYORDER=
